<svg viewBox="0 0 200 768" xmlns="http://www.w3.org/2000/svg" xmlns:xlink="http://www.w3.org/1999/xlink"><g fill="none" fill-rule="nonzero" transform="translate(-1)"><g transform="translate(1 358)"><g><path d="m74.06 1.947c-2.01-2-69.6-2-71.6 0-1.998 2-2 40.588 0 42.588 2.01 2 69.6 2 71.6 0 2-1.998 2-40.584 0-42.588" transform="translate(0 3)" fill="#e3e3e3"/><path d="m74.06 2.463c-2.01-2-69.6-2-71.6 0-1.998 1.996-2 40.584 0 42.584 2.01 2.01 69.6 2 71.6 0 2-1.998 2-40.584 0-42.584" fill="#fff"/><g transform="translate(10 23)" fill="#a0a0a0"><path d="m7.343 13.381h-1.178l-.21-1.199h-.042c-.484.839-1.389 1.408-2.692 1.408-1.959 0-3.073-1.242-3.073-2.82 0-1.703 1.283-2.88 3.703-2.88.779 0 1.389.144 1.852.293v-.274c0-1.473-.779-2.103-2.104-2.103-1.241 0-2.188.694-2.188.694l-.63-1.369c0 0 1.156-.799 3.03-.799 2.483 0 3.534 1.43 3.534 3.596v5.453h-.001m-1.641-3.957c-.314-.169-.84-.379-1.682-.379-1.495 0-2.191.631-2.191 1.664 0 .883.612 1.577 1.707 1.577 1.241 0 2.166-1.01 2.166-2.212v-.65"/><path d="m10.541.65h1.702v12.73h-1.702v-12.73"/><path d="m16.07 4.543v-2.695h1.727v2.695h2.252v1.367h-2.252v4.881c0 .863.316 1.326 1.055 1.326.545 0 1.092-.379 1.092-.379l.546 1.223c-.104.084-.862.629-1.894.629-1.766 0-2.525-1.092-2.525-2.775v-4.905h-1.472v-1.367h1.471"/></g></g><path d="m38.27.961c17.396 0 34.788.5 35.79 1.502 1.041 1.04 1.539 11.986 1.494 22.529.045 10.547-.453 21.504-1.494 22.543-1 1-18.414 1.504-35.82 1.504-17.393 0-34.78-.502-35.783-1.504-1.041-1.039-1.538-11.988-1.494-22.529-.044-10.549.453-21.503 1.494-22.543 1-1 18.408-1.502 35.813-1.502m0-.961c-9.09 0-17.646.134-24.09.376-11.422.429-12.01 1.017-12.4 1.407-1.732 1.733-1.797 18.215-1.775 23.23-.021 4.999.043 21.473 1.775 23.21.389.391.978.979 12.389 1.408 6.439.242 14.988.377 24.07.377 9.09 0 17.649-.135 24.1-.377 11.422-.43 12.01-1.018 12.4-1.408 1.733-1.73 1.798-18.215 1.776-23.23.021-5-.043-21.475-1.775-23.2-.39-.391-.979-.979-12.392-1.407-6.442-.243-14.991-.376-24.08-.376" fill="#d1d1d1"/></g><g transform="translate(1 598)"><g><g fill="#e3e3e3"><path d="m28.533 1.153c-.924-.923-26.335-.922-27.26 0-.922.92-.922 18.695 0 19.619.92.924 26.331.922 27.26 0 .922-.922.922-18.698 0-19.619" transform="translate(33 3)"/><path d="m28.911.73c-.922-.924-26.334-.924-27.26 0-.921.918-.923 18.695 0 19.615.922.924 26.336.922 27.26 0 .922-.919.922-18.697 0-19.615" transform="translate(0 28)"/><path d="m28.533.73c-.924-.924-26.335-.924-27.26 0-.922.918-.922 18.695 0 19.615.92.924 26.331.922 27.26 0 .922-.919.922-18.697 0-19.615" transform="translate(33 28)"/><path d="m28.556.73c-.923-.924-26.333-.924-27.26 0-.92.918-.922 18.695 0 19.615.924.924 26.336.922 27.26 0 .922-.919.923-18.697 0-19.615" transform="translate(66 28)"/></g><g><g fill="#fff"><path d="m28.533 1.652c-.924-.921-26.335-.919-27.26 0-.922.923-.922 18.697 0 19.619.92.922 26.331.922 27.26 0 .922-.922.922-18.696 0-19.619" transform="translate(33)"/><path d="m28.911 1.227c-.922-.923-26.334-.921-27.26 0-.921.922-.923 18.697 0 19.619.922.924 26.336.924 27.26 0 .922-.922.922-18.696 0-19.619" transform="translate(0 25)"/><path d="m28.533 1.227c-.924-.923-26.335-.921-27.26 0-.922.922-.922 18.697 0 19.619.92.924 26.331.924 27.26 0 .922-.922.922-18.696 0-19.619" transform="translate(33 25)"/><path d="m28.556 1.227c-.923-.923-26.333-.921-27.26 0-.92.922-.922 18.697 0 19.619.924.924 26.336.924 27.26 0 .922-.922.923-18.696 0-19.619" transform="translate(66 25)"/></g><g fill="#a0a0a0"><path d="m52.39 15.285c-1.354-3.02-2.92-5.646-4.487-7.883-1.57 2.238-3.138 4.867-4.493 7.883 2.982.318 5.998.318 8.98 0" opacity=".5"/><path d="m43.41 32.22c1.355 3.02 2.923 5.645 4.493 7.885 1.567-2.24 3.133-4.869 4.487-7.885-2.981-.319-5.997-.319-8.98 0" opacity=".5"/><path d="m17.857 31.549c-3.02 1.352-5.647 2.92-7.886 4.486 2.239 1.568 4.868 3.137 7.886 4.492.316-2.98.316-5.998 0-8.978" opacity=".5"/><path d="m78.35 40.527c3.02-1.355 5.645-2.924 7.884-4.492-2.239-1.566-4.867-3.135-7.884-4.486-.318 2.98-.318 5.998 0 8.978" opacity=".5"/></g></g></g><g fill="#d1d1d1"><path d="m47.914.962c6.579 0 13.156.23 13.619.69.501.503.729 6 .684 11.06.045 5.056-.183 10.561-.684 11.06-.463.461-7.06.692-13.644.692-6.579 0-13.151-.23-13.611-.692-.503-.502-.73-6-.686-11.06-.045-5.056.184-10.558.686-11.06.46-.459 7.05-.689 13.636-.689m0-.962c-13.343 0-14.02.681-14.316.972-.879.881-1.01 6.875-.967 11.749-.063 7.07.263 11.03.967 11.731.29.291.969.974 14.292.974 13.347 0 14.03-.682 14.322-.974.704-.706 1.03-4.66.966-11.752.064-7.07-.262-11.02-.963-11.727-.295-.292-.977-.973-14.301-.973"/><path d="m15.292 25.534c6.581 0 13.159.231 13.619.693.501.502.729 6 .685 11.06.043 5.059-.184 10.561-.685 11.06-.46.461-7.05.691-13.638.691-6.58 0-13.158-.23-13.619-.691-.501-.502-.731-6-.685-11.06-.046-5.05.184-10.559.685-11.06.463-.461 7.05-.692 13.638-.692m0-.961c-13.344 0-14.03.683-14.318.974-.88.878-1.01 6.875-.967 11.75-.044 4.855.087 10.848.967 11.729.291.29.973.974 14.299.974 13.345 0 14.03-.684 14.318-.975.702-.703 1.027-4.656.967-11.75.061-7.08-.265-11.03-.967-11.728-.29-.291-.972-.974-14.299-.974"/><path d="m47.914 25.534c6.579 0 13.156.231 13.619.693.501.502.729 6 .684 11.06.045 5.059-.183 10.561-.684 11.06-.463.461-7.05.691-13.639.691-6.58 0-13.156-.23-13.616-.691-.503-.502-.73-6-.686-11.06-.045-5.05.184-10.559.686-11.06.46-.461 7.05-.692 13.636-.692m0-.961c-13.344 0-14.02.683-14.316.974-.877.878-1.01 6.875-.967 11.75-.063 7.07.263 11.03.967 11.73.29.289.97.973 14.297.973 13.342 0 14.02-.682 14.317-.973.704-.707 1.03-4.66.966-11.752.064-7.07-.262-11.02-.965-11.728-.291-.291-.974-.974-14.299-.974"/><path d="m80.938 25.534c6.578 0 13.157.231 13.618.693.5.502.73 6 .685 11.06.046 5.059-.185 10.561-.685 11.06-.461.461-7.05.691-13.638.691-6.58 0-13.158-.23-13.619-.691-.502-.502-.73-6-.684-11.06-.047-5.057.182-10.561.684-11.06.461-.462 7.05-.693 13.639-.693m0-.961c-13.344 0-14.03.682-14.319.973-.878.879-1.01 6.875-.966 11.752-.044 4.855.087 10.848.966 11.727.29.293.974.975 14.299.975 13.344 0 14.03-.684 14.317-.975.88-.881 1.01-6.877.966-11.75.045-4.855-.087-10.848-.965-11.728-.291-.291-.973-.974-14.298-.974"/></g></g><g transform="translate(0 418)"><g transform="translate(1)"><path d="m74.06 1.949c-2-2-69.6-2-71.6 0-1.999 2-2 40.586 0 42.588 2 2 69.6 2 71.6 0 1.998-2 2-40.584 0-42.588" transform="translate(0 3)" fill="#e3e3e3"/><path d="m74.06 2.461c-2-2-69.6-2-71.6 0-1.999 2-2 40.588 0 42.59 2 2 69.6 2 71.6 0 1.998-2 2-40.59 0-42.59" fill="#fff"/><g transform="translate(9 23)" fill="#a0a0a0"><path d="m.243 8.986c0-2.736 1.618-4.648 4.082-4.648 1.811 0 2.461.775 2.461.775l-.485 1.287c0 0-.734-.633-1.871-.633-1.39 0-2.462 1.18-2.462 3.219 0 2.062 1.072 3.178 2.462 3.178 1.137 0 1.871-.631 1.871-.631l.463 1.262c0 0-.652.801-2.439.801-2.464 0-4.082-1.873-4.082-4.61"/><path d="m9.959 4.547v-2.692h1.729v2.692h2.252v1.371h-2.252v4.879c0 .863.314 1.328 1.049 1.328.551 0 1.096-.381 1.096-.381l.547 1.223c-.104.08-.861.629-1.895.629-1.766 0-2.525-1.094-2.525-2.775v-4.902h-1.473v-1.371h1.472v-.001"/><path d="m20.795 5.938h-.443c-1.049 0-1.996.967-2.037 2.291v5.154h-1.705v-8.836h1.156l.168 1.496h.107c.438-.967 1.346-1.518 2.291-1.518h.463v1.413"/><path d="m23.14.656h1.694v12.727h-1.694z"/></g></g><path d="m39.27.961c17.395 0 34.788.5 35.789 1.5 1.041 1.043 1.536 11.99 1.497 22.533.039 10.545-.456 21.502-1.497 22.543-1 1-18.416 1.501-35.826 1.501-17.391 0-34.775-.501-35.776-1.501-1.04-1.041-1.538-11.988-1.495-22.531-.044-10.547.454-21.502 1.494-22.545 1-1 18.409-1.5 35.814-1.5m0-.961c-9.09 0-17.647.133-24.09.375-11.422.43-12.01 1.018-12.398 1.406-1.728 1.733-1.797 18.217-1.777 23.23-.021 5 .049 21.479 1.776 23.21.389.389.977.979 12.386 1.406 6.44.243 14.987.377 24.07.377 9.09 0 17.653-.134 24.1-.377 11.425-.43 12.01-1.018 12.404-1.406 1.677-1.677 1.802-16.801 1.778-23.23.023-6.412-.102-21.53-1.777-23.21-.391-.389-.979-.977-12.392-1.406-6.442-.242-14.993-.375-24.08-.375" fill="#d1d1d1"/></g><g transform="translate(1 178)"><g><path d="m44.882 4.944c-.02-.03-.039-.06-.061-.081-.025-.027-.059-.051-.104-.072-1.752-1.168-18.424-1.522-30.05-1.264-6.645.094-11.975.405-12.537.966-1.552 1.55-1.556 31.876 0 33.431.682.682 9.933 1.062 18.351 1.145.209 4.881.59 8.165 1.141 8.719.609.605 3.324.984 6.693 1.152h.002c6.462.318 15.342-.149 16.51-1.312 1.986-1.985 2.01-39.913.06-42.684" fill="#e3e3e3"/><g><path d="m44.882 2.459c-.02-.033-.039-.062-.061-.084-.025-.023-.059-.051-.104-.072-1.752-1.167-18.424-1.521-30.05-1.261-6.645.094-11.975.401-12.537.964-1.552 1.552-1.556 31.877 0 33.426.682.686 9.933 1.066 18.351 1.149.209 4.882.59 8.165 1.141 8.714.609.611 3.324.994 6.693 1.158h.002c6.462.318 15.342-.146 16.51-1.309 1.986-1.99 2.01-39.917.06-42.685" fill="#fff"/><g fill="#a0a0a0"><path d="m30.22 9.6c-2.367 1.062-4.432 2.295-6.193 3.525 1.762 1.231 3.826 2.466 6.193 3.529.252-2.342.252-4.711 0-7.05"/><path d="m36.662 13.746h-10.274c-.341 0-.621-.277-.621-.621 0-.342.28-.619.621-.619h9.648v-2.906c0-.348.279-.621.625-.621.34 0 .617.273.617.621v3.525c.001.344-.277.621-.616.621"/></g></g></g><path d="m22.289.961c10.219 0 21.04.415 22.43 1.342.045.021.078.049.104.072.021.021.041.051.061.084 1 1.418 1.479 12.11 1.443 22.439.041 10.619-.457 21.684-1.504 22.729-.926.926-6.736 1.412-12.327 1.412-1.437 0-2.858-.033-4.183-.098v-.002c-3.371-.168-6.086-.547-6.695-1.152-.551-.554-.932-3.838-1.141-8.719-8.418-.082-17.669-.463-18.351-1.145-.817-.818-1.202-9.598-1.161-17.959-.042-8.366.343-17.14 1.16-17.958.562-.562 5.892-.87 12.538-.964 2.387-.054 4.986-.081 7.626-.081m0-.961c-2.666 0-5.239.027-7.646.08-12.12.172-12.821.869-13.198 1.246-1.38 1.377-1.468 13.496-1.441 18.645-.026 5.136.062 17.254 1.443 18.633.303.303 1.219 1.219 18.11 1.416.365 7.432 1.021 8.09 1.379 8.447.309.307 1.127 1.119 7.266 1.43.021.002.043.004.064.005 1.324.064 2.748.098 4.228.098 2.653 0 11.433-.123 13.01-1.691 1.738-1.738 1.807-18.36 1.785-23.414.012-3.42-.01-20.58-1.602-22.965-.051-.08-.103-.148-.153-.206-.026-.028-.054-.054-.083-.081-.082-.068-.164-.126-.252-.174-2.301-1.363-18.09-1.469-22.908-1.469" fill="#d1d1d1"/></g><g transform="translate(1 658)"><g><path d="m115.93 4.949c-2-2-111.47-2-113.47 0-1.999 2-2 40.588 0 42.586 2 2.01 111.47 2 113.47 0 1.998-1.996 2-40.584 0-42.586" fill="#e3e3e3"/><g><path d="m115.93 2.463c-2-2-111.47-2-113.47 0-1.999 1.998-2 40.586 0 42.588 2 2 111.47 1.998 113.47 0 1.998-2 2-40.588 0-42.588" fill="#fff"/><g opacity=".5" transform="translate(5 5)" fill="#a0a0a0"><path d="m54.18 37.2h-.008c-29.393 0-46.758-.502-52.699-.934-.297-.02-.54-.254-.572-.553-.795-7.289-.795-26.621 0-33.915.032-.297.275-.529.574-.552 5.943-.429 23.325-.933 52.74-.933 29.389 0 46.755.504 52.7.933.297.022.541.255.571.553.796 7.294.796 26.628 0 33.915-.03.299-.274.531-.573.553-5.942.431-23.32.933-52.733.933m-.008-1.244h.008c28.565 0 45.749-.471 52.12-.893.718-7.412.718-25.2 0-32.611-6.372-.421-23.546-.895-52.09-.895-28.567 0-45.757.474-52.13.895-.717 7.41-.717 25.2-.002 32.611 6.372.422 23.544.893 52.09.893"/><g transform="translate(0 8)"><path d="m.841 20.227h106.33v1.244h-106.33z"/><path d="m.841 13.5h106.71v1.24h-106.71z"/><path d="m101.57 14.12h-1.24v-6.11h-99.49v-1.24h100.73z"/><path d="m.841.042h106.33v1.245h-106.33z"/></g><g transform="translate(7)"><path d="m.151 28.848h1.243v7.406h-1.243z"/><path d="m.151 1.828h1.243v6.836h-1.243z"/><path d="m7.292 28.848h1.246v7.406h-1.246z"/><path d="m7.292 1.828h1.246v7.113h-1.246z"/><path d="m14.433 28.848h1.245v7.406h-1.245z"/><path d="m14.433 1.481h1.245v7.46h-1.245z"/><path d="m21.576 28.848h1.243v7.406h-1.243z"/><path d="m21.576 1.078h1.243v7.863h-1.243z"/><path d="m28.715 1.078h1.245v7.863h-1.245z"/><path d="m35.856 1.078h1.245v7.863h-1.245z"/><path d="m43 .938h1.244v8h-1.244z"/><path d="m50.14 1.078h1.245v7.863h-1.245z"/><path d="m57.28 1.078h1.244v7.863h-1.244z"/><path d="m64.43 28.848h1.244v7.406h-1.244z"/><path d="m64.43 1.078h1.244v7.863h-1.244z"/><path d="m71.57 29.11h1.243v7.141h-1.243z"/><path d="m71.57 1.481h1.243v7.46h-1.243z"/><path d="m78.71 28.848h1.244v7.406h-1.244z"/><path d="m78.71 1.481h1.244v7.46h-1.244z"/><path d="m83.78 22.12h1.243v6.994h-1.243z"/><path d="m85.85 1.481h1.243v7.46h-1.243z"/><path d="m92.99 1.828h1.242v6.836h-1.242z"/></g><g transform="translate(21 15)"><path d="m.659.82h1.243v6.137h-1.243z"/><path d="m7.799.82h1.243v6.387h-1.243z"/><path d="m14.94.508h1.244v6.699h-1.244z"/><path d="m22.08.146h1.242v7.06h-1.242z"/><path d="m29.23.146h1.242v7.06h-1.242z"/><path d="m36.37.146h1.245v7.06h-1.245z"/><path d="m43.51.02h1.241v7.188h-1.241z"/><path d="m50.651.146h1.242v7.06h-1.242z"/><path d="m57.792.146h1.243v7.06h-1.243z"/><path d="m64.935.146h1.242v7.06h-1.242z"/><path d="m72.08.508h1.244v6.699h-1.244z"/></g><g transform="translate(9 8)"><path d="m.905 14h1.244v6.844h-1.244z"/><path d="m5.465 7.391h1.242v6.613h-1.242z"/><path d="m.905.402h1.244v6.988h-1.244z"/><path d="m8.04 14.12h1.247v6.727h-1.247z"/><path d="m8.04.402h1.247v6.988h-1.247z"/><path d="m15.188 14h1.244v6.844h-1.244z"/><path d="m15.188.402h1.244v6.988h-1.244z"/><path d="m22.331 14h1.243v6.844h-1.243z"/><path d="m22.331.402h1.243v6.758h-1.243z"/><path d="m29.471 14.12h1.244v6.727h-1.244z"/><path d="m29.471.402h1.244v6.758h-1.244z"/><path d="m36.616 14.12h1.242v6.727h-1.242z"/><path d="m36.616.402h1.242v6.758h-1.242z"/><path d="m43.756 14h1.242v6.844h-1.242z"/><path d="m43.756.402h1.242v6.758h-1.242z"/><path d="m50.899 14.12h1.242v6.727h-1.242z"/><path d="m50.899.402h1.242v6.758h-1.242z"/><path d="m58.04 14.12h1.245v6.727h-1.245z"/><path d="m58.04.402h1.245v6.758h-1.245z"/><path d="m65.18 14.12h1.241v6.727h-1.241z"/><path d="m65.18.402h1.241v6.758h-1.241z"/><path d="m72.32 14h1.243v6.844h-1.243z"/><path d="m72.32.402h1.243v6.758h-1.243z"/><path d="m79.46.402h1.245v6.758h-1.245z"/><path d="m86.61.402h1.242v6.758h-1.242z"/></g></g></g></g><path d="m59.21.961c27.86 0 55.714.5 56.715 1.502 1.04 1.041 1.536 11.987 1.496 22.531.04 10.547-.458 21.502-1.496 22.541-1 1-28.9 1.504-56.784 1.504-27.85 0-55.684-.501-56.686-1.504-1.041-1.039-1.537-11.982-1.496-22.523-.04-10.547.456-21.508 1.497-22.549 1-1 28.879-1.502 56.754-1.502m0-.961c-14.571 0-28.24.133-38.476.375-17.975.426-18.543.992-18.957 1.408-1.727 1.727-1.796 18.219-1.778 23.23-.024 6.41.098 21.522 1.779 23.2.412.416.98.982 18.93 1.41 10.224.24 23.873.375 38.434.375 14.575 0 28.24-.135 38.496-.377 17.983-.426 18.553-.992 18.966-1.408 1.728-1.727 1.799-18.211 1.779-23.23.025-6.412-.1-21.527-1.777-23.21-.415-.416-.984-.982-18.943-1.408-10.231-.242-23.888-.375-38.453-.375" fill="#d1d1d1"/></g><g transform="translate(0 718)"><g transform="translate(1)"><path d="m45.04 4.949c-2-2-40.583-2-42.585 0-1.998 2-2 40.586 0 42.586 2 2 40.584 2 42.585 0 2-1.998 2-40.582 0-42.586" fill="#e3e3e3"/><path d="m45.04 2.463c-2-2-40.583-2-42.585 0-1.998 1.998-2 40.584 0 42.584 2 2.01 40.584 2 42.585 0 2-1.996 2-40.583 0-42.584" fill="#fff"/></g><path d="m24.758.962c10.142 0 20.284.5 21.285 1.501 1.043 1.042 1.54 11.988 1.497 22.529.043 10.547-.454 21.504-1.497 22.543-1 1-11.151 1.502-21.299 1.502-10.143 0-20.285-.5-21.286-1.502-1.041-1.039-1.538-11.98-1.494-22.523-.044-10.547.453-21.507 1.494-22.549 1-1 11.152-1.501 21.3-1.501m0-.962c-6.072 0-20.369.173-21.98 1.781-1.731 1.735-1.797 18.223-1.776 23.23-.021 4.998.045 21.469 1.776 23.2 1.611 1.609 15.899 1.785 21.967 1.785 6.072 0 20.37-.176 21.979-1.785 1.731-1.727 1.799-18.213 1.778-23.23.021-5-.047-21.475-1.778-23.21-1.609-1.609-15.897-1.782-21.966-1.782" fill="#d1d1d1"/></g><g transform="translate(1 298)"><g><path d="m74.06 4.948c-2-2-69.6-1.999-71.6 0-1.998 2-2 40.589 0 42.587 2 2.01 69.6 2 71.6 0 2-1.996 2-40.582 0-42.587" fill="#e3e3e3"/><path d="m74.06 2.463c-2-2-69.6-2-71.6 0-1.998 1.997-2 40.584 0 42.586 2 2 69.6 2 71.6 0 2-1.998 2-40.586 0-42.586" fill="#fff"/><path d="m20.323 37.965h-7.995c-.343 0-.62-.277-.62-.619v-5.353c-.086-.005-.172-.008-.262-.011-.793-.033-1.694-.072-2.322-.117-.219-.016-.414-.146-.51-.344-.098-.197-.087-.432.033-.616 1.975-3.02 4.41-5.964 7.242-8.747.242-.24.631-.24.871 0 2.832 2.783 5.268 5.727 7.24 8.747.123.185.137.419.037.616-.096.195-.291.328-.51.344-.627.045-1.527.084-2.322.117-.091.003-.177.006-.262.011v5.353c.001.342-.278.619-.62.619m-7.371-1.242h6.75v-5.328c0-.33.26-.6.592-.619.248-.012.544-.025.861-.039.391-.015.81-.029 1.205-.049-1.705-2.48-3.729-4.897-6.03-7.211-2.305 2.314-4.332 4.73-6.03 7.211.396.02.814.034 1.207.049.314.014.607.027.857.039.332.02.594.289.594.619v5.328" fill="#a0a0a0"/></g><path d="m38.27.961c17.396 0 34.789.5 35.791 1.502 1.043 1.041 1.541 11.988 1.494 22.53.047 10.546-.451 21.503-1.494 22.542-1 1-18.409 1.504-35.814 1.504-17.396 0-34.787-.502-35.789-1.504-1.042-1.039-1.539-11.986-1.494-22.529-.045-10.547.452-21.502 1.493-22.543 1-1 18.408-1.502 35.813-1.502m0-.961c-9.09 0-17.645.133-24.09.375-11.423.432-12.01 1.018-12.401 1.408-1.732 1.737-1.797 18.217-1.775 23.23-.021 5 .043 21.473 1.775 23.21.389.391.978.979 12.391 1.408 6.441.243 14.992.377 24.08.377 9.09 0 17.647-.134 24.09-.377 11.421-.43 12.01-1.018 12.399-1.408 1.734-1.729 1.799-18.213 1.775-23.23.023-5-.041-21.473-1.775-23.2-.39-.391-.979-.979-12.391-1.408-6.441-.242-14.993-.375-24.08-.375" fill="#d1d1d1"/></g><g transform="translate(1 238)"><g><path d="m99.34 4.951c-2-2-94.88-2-96.88 0-2 2-2 40.584 0 42.586 2 2 94.88 2 96.88 0 2-2 2-40.585 0-42.586" fill="#e3e3e3"/><path d="m99.34 2.465c-2-2-94.88-2-96.88 0-2 1.998-2 40.582 0 42.586 2 2 94.88 2 96.88 0 2-2 2-40.586 0-42.586" fill="#fff"/></g><path d="m50.917.961c23.715 0 47.43.502 48.43 1.504 1.041 1.041 1.54 11.982 1.497 22.523.043 10.547-.456 21.507-1.497 22.549-1 1-24.733 1.502-48.46 1.502-23.713 0-47.42-.5-48.42-1.502-1.043-1.042-1.541-11.988-1.495-22.529-.046-10.55.452-21.502 1.495-22.543 1-1 24.73-1.504 48.46-1.504m0-.961c-12.398 0-24.04.135-32.778.375-15.379.428-15.947.996-16.36 1.41-1.733 1.731-1.798 18.215-1.776 23.23-.021 5 .043 21.475 1.776 23.2.415.414.98.982 16.349 1.408 8.73.242 20.363.375 32.756.375 12.4 0 24.04-.133 32.779-.375 15.379-.428 15.945-.994 16.36-1.408 1.731-1.734 1.8-18.221 1.778-23.23.021-4.997-.047-21.465-1.778-23.2-.415-.414-.981-.982-16.35-1.41-8.728-.241-20.361-.376-32.756-.376" fill="#d1d1d1"/></g><g transform="translate(1 538)"><g><g fill="#d1d1d1"><path d="m48.1.962c6.588 0 13.176.23 13.638.692.503.506.729 6.01.687 11.07.045 5.061-.184 10.575-.687 11.08-.462.459-7.06.691-13.657.691-6.589 0-13.176-.232-13.638-.691-.502-.504-.73-6.01-.687-11.07-.043-5.063.184-10.576.687-11.08.461-.462 7.06-.692 13.657-.692m0-.962c-13.363 0-14.05.683-14.337.974-.704.702-1.029 4.661-.969 11.765-.06 7.085.265 11.04.967 11.747.293.291.977.973 14.319.973 13.358 0 14.04-.68 14.335-.971.708-.709 1.033-4.668.971-11.769.062-7.079-.263-11.04-.966-11.744-.295-.292-.978-.975-14.32-.975"/><path d="m47.809 25.504c6.593 0 13.187.232 13.648.693.503.5.729 6.01.688 11.07.041 5.063-.185 10.577-.688 11.08-.462.464-7.06.693-13.648.693-6.592 0-13.187-.229-13.647-.693-.502-.5-.729-6.01-.687-11.07-.043-5.062.184-10.576.687-11.08.461-.461 7.05-.693 13.647-.693m0-.961c-13.354 0-14.04.686-14.328.977-.701.697-1.027 4.656-.967 11.763-.06 7.086.265 11.04.969 11.743.289.29.973.974 14.326.974 13.353 0 14.04-.684 14.328-.977.7-.697 1.027-4.658.969-11.767.059-7.088-.269-11.04-.971-11.739-.29-.29-.973-.974-14.326-.974"/><path d="m15.304 25.504c6.593 0 13.187.232 13.649.693.503.5.73 6.01.686 11.07.045 5.063-.182 10.575-.686 11.07-.462.464-7.06.693-13.649.693-6.593 0-13.187-.229-13.649-.693-.502-.5-.729-6.01-.687-11.07-.042-5.062.185-10.576.687-11.08.462-.461 7.06-.693 13.649-.693m0-.961c-13.355 0-14.04.686-14.33.977-.699.695-1.026 4.654-.967 11.763-.06 7.086.267 11.04.968 11.743.292.29.975.974 14.329.974 13.354 0 14.04-.684 14.329-.977.705-.701 1.031-4.66.967-11.765.064-7.086-.263-11.04-.969-11.743-.289-.288-.973-.972-14.327-.972"/><path d="m80.881 25.504c6.594 0 13.188.232 13.648.693.503.5.73 6.01.687 11.07.045 5.063-.184 10.575-.687 11.07-.461.464-7.05.693-13.648.693-6.593 0-13.188-.229-13.646-.693-.504-.5-.731-6.01-.688-11.07-.045-5.062.184-10.576.688-11.08.458-.461 7.05-.693 13.646-.693m0-.961c-13.354 0-14.04.686-14.328.979-.703.697-1.031 4.656-.968 11.763-.063 7.082.263 11.04.972 11.741.288.29.97.974 14.324.974 13.354 0 14.04-.684 14.329-.977.704-.703 1.028-4.66.968-11.765.062-7.086-.264-11.04-.97-11.741-.29-.29-.976-.974-14.327-.974"/></g><g><path d="m61.741 4.159c-.925-.926-26.373-.926-27.3 0-.921.923-.923 18.722 0 19.648.925.922 26.371.92 27.3 0 .922-.924.922-18.725 0-19.648" fill="#e3e3e3"/><use xlink:href="#0"/><g fill="#e3e3e3"><path d="m28.953 28.699c-.925-.926-26.374-.924-27.298 0-.922.918-.922 18.725 0 19.645.924.926 26.373.926 27.298 0 .923-.92.923-18.725 0-19.645"/><path d="m94.53 28.699c-.926-.926-26.373-.924-27.3 0-.922.918-.924 18.725 0 19.645.924.926 26.371.926 27.3 0 .923-.92.925-18.725 0-19.645"/></g><path d="m61.741 1.654c-.925-.924-26.373-.922-27.3 0-.921.922-.923 18.727 0 19.647.925.926 26.371.926 27.3 0 .922-.92.922-18.723 0-19.647" fill="#fff"/><use xlink:href="#1"/><g fill="#fff"><path d="m28.953 26.2c-.925-.924-26.374-.924-27.298 0-.922.922-.922 18.723 0 19.645.924.926 26.373.924 27.298 0 .923-.92.923-18.723 0-19.645"/><path d="m94.53 26.2c-.926-.924-26.373-.924-27.3 0-.922.922-.924 18.723 0 19.645.924.926 26.371.924 27.3 0 .923-.92.925-18.723 0-19.645"/></g><path fill="#a0a0a0" d="m47.872 10.05l-1.472 6.12h-1.09l-2.478-8.498h1.498l1.502 6.02 1.458-6.02h1.18l1.453 6.03 1.517-6.03h1.514l-2.474 8.498h-1.09z"/><use xlink:href="#2"/><g fill="#a0a0a0"><path d="m45.624 38.611c0 0 .919.82 2.179.82.973 0 1.389-.48 1.389-1.179 0-.646-.284-.974-1.686-1.438-1.769-.564-2.576-1.203-2.576-2.533 0-1.457 1-2.422 2.886-2.422 1.956 0 2.733.867 2.733.867l-.766 1.143c0 0-.736-.705-1.968-.705-.849 0-1.327.379-1.327 1.059 0 .582.353.863 1.639 1.291 1.914.578 2.634 1.326 2.634 2.646 0 1.444-.964 2.575-2.914 2.575-2.025 0-2.986-1.061-2.986-1.061l.763-1.063"/><path d="m80.37 40.26h-2.804v-8.492h2.804c2.435 0 3.991 1.715 3.991 4.248 0 2.533-1.556 4.244-3.991 4.244m-1.401-7.244v6h1.303c1.5 0 2.662-1.119 2.662-3 0-1.924-1.162-3-2.662-3h-1.303"/></g></g></g><g transform="translate(103)"><g transform="translate(1)"><g fill="#e3e3e3"><path d="m28.324 1.153c-.925-.923-26.335-.922-27.26 0-.922.92-.922 18.695 0 19.619.92.924 26.33.922 27.26 0 .922-.922.922-18.698 0-19.619" transform="translate(33 3)"/><path d="m28.702.73c-.922-.924-26.334-.924-27.26 0-.921.918-.923 18.694 0 19.615.922.924 26.336.922 27.26 0 .922-.919.922-18.697 0-19.615" transform="translate(0 28)"/><path d="m28.324.73c-.925-.924-26.335-.924-27.26 0-.922.918-.922 18.694 0 19.615.92.924 26.33.922 27.26 0 .922-.919.922-18.697 0-19.615" transform="translate(33 28)"/><path d="m28.347.73c-.923-.924-26.332-.924-27.26 0-.92.918-.922 18.694 0 19.615.925.924 26.336.922 27.26 0 .922-.919.924-18.697 0-19.615" transform="translate(66 28)"/></g><g><g fill="#fff"><path d="m28.324 1.652c-.925-.921-26.335-.919-27.26 0-.922.923-.922 18.697 0 19.619.92.922 26.33.922 27.26 0 .922-.922.922-18.696 0-19.619" transform="translate(33)"/><path d="m28.702 1.227c-.922-.922-26.334-.92-27.26 0-.921.922-.923 18.697 0 19.619.922.924 26.336.924 27.26 0 .922-.922.922-18.696 0-19.619" transform="translate(0 25)"/><path d="m28.324 1.227c-.925-.922-26.335-.92-27.26 0-.922.922-.922 18.697 0 19.619.92.924 26.33.924 27.26 0 .922-.922.922-18.696 0-19.619" transform="translate(33 25)"/><path d="m28.347 1.227c-.923-.922-26.332-.92-27.26 0-.92.922-.922 18.697 0 19.619.925.924 26.336.924 27.26 0 .922-.922.924-18.696 0-19.619" transform="translate(66 25)"/></g><g fill="#a0a0a0"><path d="m52.19 15.285c-1.354-3.02-2.92-5.646-4.486-7.883-1.57 2.238-3.138 4.867-4.493 7.883 2.982.318 5.997.318 8.979 0" opacity=".5"/><path d="m43.2 32.22c1.355 3.02 2.923 5.645 4.493 7.885 1.567-2.24 3.133-4.869 4.487-7.885-2.981-.319-5.996-.319-8.98 0" opacity=".5"/><path d="m17.648 31.549c-3.02 1.352-5.647 2.92-7.886 4.486 2.238 1.568 4.867 3.137 7.886 4.492.316-2.98.316-5.998 0-8.978" opacity=".5"/><path d="m78.15 40.527c3.02-1.355 5.645-2.924 7.883-4.492-2.238-1.566-4.866-3.135-7.883-4.486-.319 2.98-.319 5.998 0 8.978" opacity=".5"/></g></g></g><g fill="#d1d1d1"><path d="m48.705.962c6.579 0 13.155.23 13.619.69.501.503.729 6 .684 11.06.046 5.056-.183 10.561-.684 11.06-.464.461-7.06.692-13.644.692-6.579 0-13.151-.23-13.611-.692-.503-.502-.73-6-.687-11.06-.045-5.056.185-10.558.687-11.06.46-.459 7.05-.689 13.636-.689m0-.962c-13.343 0-14.02.681-14.315.972-.88.881-1.01 6.875-.968 11.749-.062 7.07.264 11.03.968 11.731.29.291.969.974 14.292.974 13.347 0 14.03-.682 14.321-.974.704-.706 1.03-4.66.967-11.752.063-7.07-.263-11.02-.964-11.727-.295-.292-.978-.973-14.301-.973"/><path d="m16.08 25.534c6.581 0 13.159.231 13.619.692.501.502.729 6 .686 11.06.043 5.059-.185 10.562-.686 11.06-.46.461-7.05.691-13.638.691-6.58 0-13.158-.23-13.619-.691-.501-.502-.731-6-.686-11.06-.046-5.05.185-10.559.686-11.06.463-.46 7.05-.692 13.638-.692m0-.961c-13.344 0-14.03.683-14.317.974-.881.878-1.012 6.875-.968 11.75-.044 4.855.087 10.848.968 11.729.291.291.973.975 14.299.975 13.345 0 14.03-.684 14.317-.975.702-.703 1.027-4.656.968-11.75.061-7.08-.266-11.03-.968-11.729-.29-.291-.972-.974-14.299-.974"/><path d="m48.705 25.534c6.579 0 13.155.231 13.619.692.501.502.729 6 .684 11.06.046 5.059-.183 10.562-.684 11.06-.464.461-7.05.691-13.639.691-6.58 0-13.156-.23-13.616-.691-.503-.502-.73-6-.687-11.06-.045-5.05.185-10.559.687-11.06.46-.46 7.05-.692 13.636-.692m0-.961c-13.344 0-14.02.683-14.315.974-.877.878-1.01 6.875-.968 11.75-.062 7.07.264 11.03.968 11.73.29.289.97.973 14.297.973 13.342 0 14.02-.682 14.316-.973.704-.707 1.03-4.66.967-11.752.063-7.07-.263-11.02-.966-11.729-.291-.29-.974-.973-14.299-.973"/><path d="m81.73 25.534c6.578 0 13.156.231 13.617.692.5.502.73 6 .686 11.06.046 5.059-.186 10.562-.686 11.06-.461.461-7.05.691-13.638.691-6.58 0-13.158-.23-13.619-.691-.502-.502-.729-6-.684-11.06-.048-5.057.182-10.561.684-11.06.462-.461 7.05-.693 13.64-.693m0-.961c-13.345 0-14.03.682-14.319.973-.878.879-1.01 6.875-.966 11.752-.045 4.854.087 10.849.966 11.728.29.292.974.974 14.299.974 13.345 0 14.03-.684 14.317-.975.88-.881 1.01-6.877.966-11.75.045-4.855-.087-10.849-.966-11.729-.291-.29-.972-.973-14.297-.973"/></g></g></g><g transform="translate(0 478)"><g fill="#d1d1d1"><path d="m49.1.962c6.589 0 13.177.23 13.638.692.503.506.73 6.01.687 11.07.044 5.061-.184 10.575-.687 11.08-.462.459-7.06.691-13.657.691-6.589 0-13.176-.232-13.638-.691-.502-.504-.73-6.01-.687-11.07-.043-5.063.184-10.576.687-11.08.461-.462 7.06-.692 13.657-.692m0-.962c-13.363 0-14.05.683-14.337.974-.704.702-1.029 4.661-.969 11.765-.06 7.085.265 11.04.967 11.747.293.291.977.973 14.319.973 13.359 0 14.04-.68 14.335-.971.708-.709 1.033-4.668.971-11.769.062-7.079-.263-11.04-.966-11.744-.295-.292-.977-.975-14.32-.975"/><path d="m48.808 25.504c6.593 0 13.187.232 13.648.693.503.5.728 6.01.687 11.07.041 5.064-.184 10.578-.687 11.08-.462.463-7.06.693-13.648.693-6.592 0-13.187-.23-13.647-.693-.502-.5-.729-6.01-.687-11.07-.043-5.062.184-10.576.687-11.08.461-.461 7.05-.693 13.647-.693m0-.961c-13.354 0-14.04.686-14.328.977-.701.697-1.027 4.656-.967 11.762-.06 7.086.265 11.04.969 11.744.289.29.973.974 14.326.974 13.353 0 14.04-.684 14.328-.977.7-.697 1.027-4.658.968-11.766.059-7.088-.268-11.04-.97-11.74-.29-.29-.973-.974-14.326-.974"/><path d="m16.303 25.504c6.593 0 13.187.232 13.649.693.503.5.73 6.01.686 11.07.045 5.064-.182 10.576-.686 11.08-.462.463-7.06.693-13.649.693-6.593 0-13.187-.23-13.649-.693-.502-.5-.729-6.01-.687-11.07-.042-5.062.185-10.576.687-11.08.462-.461 7.06-.693 13.649-.693m0-.961c-13.355 0-14.04.686-14.33.977-.699.695-1.026 4.654-.967 11.762-.06 7.086.267 11.04.968 11.744.292.29.975.974 14.329.974 13.354 0 14.04-.684 14.329-.977.705-.701 1.031-4.66.967-11.764.064-7.086-.263-11.04-.969-11.744-.289-.288-.973-.972-14.327-.972"/><path d="m81.88 25.504c6.593 0 13.187.232 13.649.693.502.5.73 6.01.686 11.07.045 5.064-.184 10.576-.686 11.08-.462.463-7.06.693-13.649.693-6.593 0-13.187-.23-13.646-.693-.504-.5-.732-6.01-.688-11.07-.045-5.062.184-10.576.688-11.08.459-.461 7.05-.693 13.646-.693m0-.961c-13.354 0-14.04.686-14.328.979-.704.697-1.031 4.656-.968 11.762-.063 7.082.263 11.04.972 11.742.288.29.97.974 14.324.974 13.354 0 14.04-.684 14.329-.977.704-.703 1.029-4.66.968-11.764.062-7.086-.264-11.04-.97-11.742-.29-.29-.975-.974-14.327-.974"/></g><g transform="translate(1)"><path d="m61.74 4.159c-.925-.926-26.373-.926-27.3 0-.921.923-.923 18.722 0 19.648.925.922 26.371.92 27.3 0 .922-.924.922-18.725 0-19.648" fill="#e3e3e3"/><path d="m61.46 28.699c-.925-.926-26.373-.924-27.3 0-.921.918-.921 18.725 0 19.645.923.926 26.373.926 27.3 0 .921-.92.921-18.725 0-19.645" fill="#e3e3e3" id="0"/><g fill="#e3e3e3"><path d="m28.952 28.699c-.925-.926-26.374-.924-27.298 0-.922.918-.922 18.725 0 19.645.924.926 26.373.926 27.298 0 .923-.92.923-18.725 0-19.645"/><path d="m94.53 28.699c-.927-.926-26.374-.924-27.3 0-.922.918-.924 18.725 0 19.645.924.926 26.371.926 27.3 0 .922-.92.924-18.725 0-19.645"/></g><path d="m61.74 1.654c-.925-.924-26.373-.922-27.3 0-.921.922-.923 18.727 0 19.647.925.926 26.371.926 27.3 0 .922-.92.922-18.723 0-19.647" fill="#fff"/><path d="m61.46 26.2c-.925-.924-26.373-.924-27.3 0-.921.922-.921 18.723 0 19.645.923.926 26.373.924 27.3 0 .921-.92.921-18.723 0-19.645" fill="#fff" id="1"/><g fill="#fff"><path d="m28.952 26.2c-.925-.924-26.374-.924-27.298 0-.922.922-.922 18.723 0 19.645.924.926 26.373.924 27.298 0 .923-.92.923-18.723 0-19.645"/><path d="m94.53 26.2c-.927-.924-26.374-.924-27.3 0-.922.922-.924 18.723 0 19.645.924.926 26.371.924 27.3 0 .922-.92.924-18.723 0-19.645"/></g><path fill="#a0a0a0" d="m47.871 10.05l-1.471 6.12h-1.09l-2.479-8.498h1.499l1.501 6.02 1.459-6.02h1.17l1.462 6.03 1.518-6.03h1.512l-2.482 8.498h-1.09z"/><path d="m19.19 40.545h-1.486l-.608-1.742h-3.58l-.61 1.742h-1.485l3.172-8.494h1.415l3.182 8.494m-5.265-2.93h2.747l-1.371-3.922-1.376 3.922" fill="#a0a0a0" id="2"/><g fill="#a0a0a0"><path d="m45.623 38.611c0 0 .919.82 2.179.82.973 0 1.389-.48 1.389-1.178 0-.645-.285-.973-1.686-1.439-1.769-.564-2.576-1.203-2.576-2.533 0-1.457 1-2.422 2.886-2.422 1.956 0 2.733.867 2.733.867l-.766 1.143c0 0-.736-.705-1.968-.705-.849 0-1.327.379-1.327 1.059 0 .582.353.863 1.639 1.291 1.914.578 2.634 1.326 2.634 2.645 0 1.445-.964 2.576-2.914 2.576-2.025 0-2.986-1.061-2.986-1.061l.763-1.063"/><path d="m80.37 40.26h-2.804v-8.492h2.804c2.434 0 3.992 1.715 3.992 4.248 0 2.533-1.558 4.244-3.992 4.244m-1.401-7.244v6h1.302c1.501 0 2.662-1.119 2.662-3 0-1.924-1.161-3-2.662-3h-1.302"/></g></g></g><g transform="translate(1)"><path d="m20.282 49.02c-.428 0-1.08-.011-1.746-.062-3.302-.246-6.089-1.482-8.282-3.676-1.326-1.328-3.02-3.638-3.54-7.088-.067-.441-.112-.896-.146-1.395-.05-.787-.052-6.615-.052-6.713 0-.324.002-9.257.052-10.04.033-.493.078-.949.144-1.387.519-3.455 2.214-5.766 3.542-7.095 2.193-2.194 4.98-3.431 8.282-3.678.666-.051 1.318-.06 1.746-.06.431 0 1.082.009 1.751.06 3.299.247 6.084 1.484 8.279 3.678 1.33 1.329 3.02 3.64 3.54 7.093.066.438.114.896.146 1.393.05.774.052 9.707.052 10.03 0 .096 0 5.92-.052 6.711-.032.504-.079.961-.146 1.398-.517 3.448-2.21 5.758-3.54 7.088-2.195 2.193-4.98 3.43-8.279 3.676-.669.052-1.32.063-1.751.063" fill="#e3e3e3"/><path d="m20.282 46.772c-.428 0-1.08-.011-1.746-.062-3.302-.246-6.089-1.483-8.282-3.677-1.326-1.328-3.02-3.637-3.54-7.088-.067-.441-.112-.895-.146-1.394-.05-.788-.052-6.616-.052-6.712 0-.323.002-9.257.052-10.04.033-.493.078-.95.144-1.388.519-3.453 2.214-5.764 3.542-7.094 2.193-2.193 4.98-3.432 8.282-3.678.666-.051 1.318-.061 1.746-.061.431 0 1.082.01 1.751.061 3.299.246 6.084 1.484 8.279 3.678 1.33 1.33 3.02 3.641 3.54 7.092.066.439.114.895.146 1.394.05.775.052 9.709.052 10.03 0 .096 0 5.92-.052 6.712-.032.505-.079.96-.146 1.397-.517 3.449-2.21 5.76-3.54 7.088-2.195 2.193-4.98 3.431-8.279 3.677-.669.053-1.32.063-1.751.063" fill="#fff"/><path d="m20.282 5.585c.431 0 1.082.01 1.751.061 3.299.246 6.084 1.484 8.279 3.678 1.33 1.33 3.02 3.641 3.54 7.092.066.439.114.895.146 1.394.05.775.052 9.709.052 10.03 0 .022 0 .375 0 .9 0 .754 0 1.275 0 1.348 0 .096 0 5.92-.052 6.711-.032.504-.079.961-.146 1.398-.517 3.448-2.21 5.758-3.54 7.088-2.197 2.193-4.98 3.43-8.279 3.676-.669.051-1.32.062-1.749.062-.429 0-1.082-.011-1.748-.062-3.302-.246-6.089-1.482-8.282-3.676-1.326-1.328-3.02-3.638-3.54-7.088-.065-.441-.112-.896-.146-1.395-.05-.787-.052-6.615-.052-6.713 0-.072 0-.604.002-1.367-.002-.514-.002-.856-.002-.879 0-.323.002-9.257.052-10.04.033-.493.078-.95.144-1.388.519-3.453 2.214-5.764 3.542-7.094 2.193-2.193 4.98-3.432 8.28-3.678.668-.05 1.32-.06 1.748-.06m0-.981c-.657 0-1.271.021-1.823.063-3.54.264-6.535 1.597-8.898 3.962-1.434 1.436-3.26 3.926-3.817 7.643-.067.451-.118.932-.153 1.467-.054.834-.054 9.723-.054 10.1l.002.883-.002 1.363c0 .059 0 5.937.054 6.774.035.534.086 1.017.155 1.478.558 3.713 2.383 6.201 3.815 7.636 2.363 2.364 5.358 3.696 8.902 3.961.694.053 1.373.064 1.821.064.446 0 1.125-.011 1.823-.064 3.537-.265 6.53-1.596 8.898-3.96 1.434-1.434 3.26-3.924 3.816-7.637.068-.457.12-.94.154-1.479.052-.798.054-6.166.054-6.774v-1.348-.9c0-.377 0-9.264-.054-10.09-.032-.521-.084-1-.154-1.475-.557-3.717-2.383-6.207-3.816-7.641-2.366-2.365-5.359-3.698-8.9-3.962-.549-.042-1.164-.064-1.823-.064" fill="#d1d1d1"/><g fill="#a0a0a0"><path d="m21.02 5.591c-.245-.004-.493-.006-.743-.006-.249 0-.497.002-.741.006v15.03h1.484v-15.03" opacity=".5"/><path d="m20.282 24.55c-.242 0-.48-.008-.667-.02-.285-.022-.816-.064-1.244-.49-.369-.37-.435-.809-.455-.952-.016-.1-.029-.216-.037-.355-.014-.208-.021-1.416-.021-1.691 0-.276.008-4.632.021-4.839.008-.14.021-.257.037-.355.021-.145.086-.584.455-.952.428-.429.959-.47 1.244-.489.187-.016.423-.022.667-.022.244 0 .481.007.669.022.285.02.816.061 1.244.489.369.368.436.808.455.952.018.099.028.216.037.355.014.207.021 4.562.021 4.839 0 .275-.008 1.483-.021 1.691-.009.14-.02.256-.037.355-.02.144-.086.582-.455.952-.428.426-.959.468-1.244.49-.187.012-.424.02-.669.02"/></g><g fill="#71c3ea"><path d="m13.1 16.474c-1.858 0-3.37-1.51-3.37-3.369 0-1.857 1.512-3.371 3.37-3.371 1.859 0 3.37 1.514 3.37 3.371 0 1.859-1.511 3.369-3.37 3.369m0-5.242c-1.031 0-1.871.839-1.871 1.872 0 1.033.84 1.871 1.871 1.871 1.032 0 1.872-.838 1.872-1.871 0-1.033-.84-1.872-1.872-1.872"/><path d="m13.1 19.845c-3.715 0-6.739-3.02-6.739-6.74 0-3.717 3.02-6.74 6.739-6.74 3.717 0 6.74 3.02 6.74 6.74 0 3.717-3.02 6.74-6.74 6.74m0-11.982c-2.889 0-5.24 2.351-5.24 5.241 0 2.89 2.352 5.242 5.24 5.242 2.892 0 5.242-2.352 5.242-5.242 0-2.89-2.351-5.241-5.242-5.241" opacity=".5"/><path d="m13.1 23.03c-5.471 0-9.92-4.45-9.92-9.923 0-5.471 4.449-9.922 9.92-9.922 5.473 0 9.923 4.451 9.923 9.922-.001 5.473-4.451 9.923-9.923 9.923m0-18.348c-4.645 0-8.426 3.779-8.426 8.426 0 4.647 3.781 8.425 8.426 8.425 4.646 0 8.426-3.778 8.426-8.425 0-4.647-3.781-8.426-8.426-8.426" opacity=".3"/><path d="m13.1 26.21c-7.226 0-13.1-5.878-13.1-13.11 0-7.227 5.878-13.1 13.1-13.1 7.226 0 13.11 5.878 13.11 13.1 0 7.226-5.88 13.11-13.11 13.11m0-24.711c-6.399 0-11.605 5.206-11.605 11.606 0 6.4 5.206 11.607 11.605 11.607 6.401 0 11.607-5.207 11.607-11.607 0-6.4-5.206-11.606-11.607-11.606" opacity=".1"/></g></g><g transform="translate(2 122)"><path d="m28.17 45.02c-.43 0-1.08-.01-1.75-.061-3.301-.246-6.086-1.482-8.281-3.676-1.327-1.328-3.02-3.637-3.541-7.088-.065-.441-.114-.896-.145-1.395-.048-.787-.048-6.615-.048-6.715 0-.322 0-9.256.048-10.03.03-.494.077-.948.145-1.388.519-3.454 2.214-5.766 3.541-7.095 2.195-2.193 4.98-3.43 8.281-3.677.667-.051 1.318-.062 1.748-.062.431 0 1.081.011 1.748.062 3.302.249 6.088 1.487 8.282 3.678 1.329 1.329 3.02 3.641 3.541 7.093.065.439.114.896.144 1.394.049.773.049 9.707.049 10.03 0 .097 0 5.921-.049 6.712-.029.505-.078.961-.144 1.398-.519 3.449-2.212 5.758-3.541 7.088-2.194 2.193-4.98 3.43-8.282 3.676-.668.051-1.317.061-1.746.061" fill="#e3e3e3"/><path d="m28.17 42.772c-.43 0-1.08-.01-1.75-.061-3.301-.248-6.086-1.484-8.281-3.678-1.327-1.328-3.02-3.637-3.541-7.088-.065-.44-.114-.896-.145-1.393-.048-.789-.048-6.618-.048-6.715 0-.322 0-9.256.048-10.04.03-.493.077-.949.145-1.387.519-3.453 2.214-5.765 3.541-7.095 2.195-2.192 4.98-3.432 8.281-3.676.667-.052 1.318-.062 1.748-.062.431 0 1.081.01 1.748.062 3.302.247 6.088 1.486 8.282 3.678 1.329 1.33 3.02 3.642 3.541 7.093.065.439.114.895.144 1.393.049.775.049 9.709.049 10.03 0 .097 0 5.922-.049 6.712-.029.505-.078.963-.144 1.398-.519 3.449-2.212 5.76-3.541 7.088-2.194 2.193-4.98 3.43-8.282 3.678-.668.051-1.317.06-1.746.06" fill="#fff"/><path d="m28.16 1.585c.431 0 1.081.01 1.748.062 3.302.244 6.088 1.483 8.282 3.675 1.329 1.33 3.02 3.642 3.541 7.093.065.439.114.895.144 1.393.049.775.052 9.709.052 10.03 0 .024 0 .377-.003.907 0 .748.003 1.27.003 1.341 0 .097-.003 5.921-.052 6.712-.031.505-.078.961-.144 1.398-.519 3.449-2.212 5.758-3.541 7.088-2.194 2.193-4.98 3.43-8.28 3.676-.669.051-1.319.061-1.748.061-.43 0-1.08-.01-1.75-.061-3.301-.246-6.086-1.482-8.281-3.676-1.325-1.328-3.02-3.637-3.541-7.088-.065-.441-.114-.896-.144-1.395-.049-.787-.052-6.615-.052-6.715 0-.072.003-.613.003-1.393 0-.496-.003-.831-.003-.854 0-.322.003-9.256.052-10.04.029-.493.078-.949.144-1.387.519-3.453 2.214-5.765 3.541-7.095 2.195-2.192 4.98-3.432 8.281-3.676.667-.049 1.318-.059 1.748-.059m0-.981c-.658 0-1.271.02-1.822.062-3.537.264-6.533 1.598-8.898 3.963-1.436 1.435-3.264 3.926-3.819 7.642-.071.475-.12.956-.153 1.474-.054.828-.054 9.719-.054 10.09l.001.854-.001 1.266v.127c0 .061 0 5.939.054 6.778.031.497.08.981.153 1.475.559 3.714 2.386 6.202 3.819 7.638 2.363 2.364 5.359 3.695 8.9 3.959.697.053 1.374.064 1.822.064.445 0 1.125-.011 1.823-.065 3.537-.264 6.532-1.595 8.897-3.959 1.435-1.436 3.26-3.926 3.818-7.636.068-.45.117-.935.153-1.48.053-.844.053-6.715.053-6.775v-.125l-.002-1.217.002-.907c0-.377 0-9.263-.053-10.09-.032-.516-.082-.999-.153-1.476-.559-3.718-2.384-6.208-3.818-7.64-2.366-2.365-5.36-3.699-8.9-3.963-.549-.042-1.164-.062-1.822-.062" fill="#d1d1d1"/><g fill="#a0a0a0"><path d="m28.906 1.591c-.244-.004-.493-.006-.742-.006-.25 0-.497.002-.741.006v15.03h1.483v-15.03" opacity=".5"/><path d="m28.17 20.55c-.246 0-.482-.008-.669-.02-.284-.021-.815-.063-1.245-.491-.368-.369-.434-.809-.456-.95-.017-.102-.028-.219-.035-.355-.014-.209-.021-1.417-.021-1.693 0-.276.008-4.631.021-4.838.007-.14.019-.256.035-.355.022-.145.088-.584.456-.953.43-.429.961-.468 1.245-.488.187-.017.423-.021.667-.021.246 0 .481.005.668.021.285.021.818.06 1.246.488.365.369.436.809.455.953.015.1.028.216.035.355.014.207.021 4.562.021 4.838 0 .276-.008 1.484-.021 1.693-.007.137-.021.254-.035.355-.02.142-.09.581-.455.95-.428.428-.961.47-1.246.491-.186.012-.422.02-.666.02"/></g><g transform="translate(0 16)" fill="#71c3ea" opacity=".7"><path d="m47.5 14.354c3.381-2.127 6.324-4.59 8.834-7.05-2.51-2.463-5.453-4.925-8.834-7.05-.355 4.687-.355 9.427 0 14.11"/><path d="m8.833.247c-3.38 2.13-6.325 4.592-8.833 7.05 2.508 2.463 5.453 4.926 8.833 7.05.356-4.682.356-9.422 0-14.11"/></g></g><g transform="translate(1 60)"><path d="m14.746 49.02c.43 0 1.082-.011 1.748-.062 3.3-.246 6.087-1.482 8.28-3.676 1.329-1.328 3.02-3.638 3.542-7.088.066-.441.113-.896.146-1.395.049-.787.051-6.615.051-6.713 0-.324-.002-9.257-.051-10.04-.033-.493-.08-.949-.145-1.387-.518-3.455-2.213-5.766-3.544-7.095-2.193-2.194-4.98-3.431-8.28-3.678-.666-.051-1.318-.06-1.746-.06-.43 0-1.082.009-1.75.06-3.3.247-6.085 1.484-8.279 3.678-1.33 1.329-3.02 3.64-3.543 7.093-.064.438-.113.896-.145 1.393-.048.775-.05 9.708-.05 10.03 0 .096 0 5.92.051 6.711.031.504.08.961.146 1.398.518 3.448 2.211 5.758 3.541 7.088 2.194 2.193 4.979 3.43 8.279 3.676.669.051 1.321.062 1.749.062" fill="#e3e3e3"/><path d="m14.746 46.772c.43 0 1.082-.011 1.748-.062 3.3-.246 6.087-1.483 8.28-3.677 1.329-1.328 3.02-3.637 3.542-7.088.066-.441.113-.895.146-1.394.049-.788.051-6.616.051-6.712 0-.323-.002-9.257-.051-10.04-.033-.493-.08-.95-.145-1.388-.518-3.453-2.213-5.764-3.544-7.094-2.193-2.193-4.98-3.432-8.28-3.678-.666-.051-1.318-.061-1.746-.061-.43 0-1.082.01-1.75.061-3.3.246-6.085 1.484-8.279 3.678-1.33 1.33-3.02 3.641-3.543 7.092-.064.439-.113.895-.145 1.394-.048.777-.05 9.711-.05 10.03 0 .096 0 5.92.051 6.712.031.505.08.96.146 1.397.518 3.449 2.211 5.76 3.541 7.088 2.194 2.193 4.979 3.431 8.279 3.677.669.051 1.321.061 1.749.061" fill="#fff"/><path d="m14.748 5.585c.428 0 1.08.01 1.746.061 3.3.246 6.087 1.484 8.28 3.678 1.331 1.33 3.02 3.641 3.542 7.094.066.438.113.895.146 1.388.049.779.049 9.713.049 10.04 0 .022 0 .365 0 .879 0 .764 0 1.295 0 1.367 0 .098 0 5.926-.049 6.713-.033.498-.08.953-.146 1.395-.52 3.45-2.213 5.76-3.542 7.088-2.193 2.193-4.98 3.43-8.28 3.676-.666.051-1.318.062-1.748.062-.428 0-1.08-.011-1.748-.062-3.3-.246-6.085-1.482-8.279-3.676-1.33-1.33-3.02-3.64-3.541-7.088-.066-.438-.115-.895-.146-1.398-.052-.793-.052-6.617-.052-6.713 0-.074 0-.604 0-1.369 0-.514 0-.856 0-.879 0-.319.002-9.253.051-10.03.031-.499.08-.954.145-1.394.518-3.451 2.213-5.762 3.543-7.092 2.194-2.193 4.979-3.432 8.279-3.678.668-.05 1.32-.06 1.75-.06m0-.981c-.658 0-1.273.021-1.824.063-3.537.265-6.531 1.598-8.899 3.963-1.436 1.436-3.263 3.926-3.818 7.641-.07.473-.121.954-.154 1.475-.053.829-.053 9.999-.053 10.09v.879 1.369c0 .608.002 5.975.053 6.772.033.533.084 1.018.154 1.483.559 3.711 2.385 6.201 3.818 7.634 2.365 2.364 5.359 3.696 8.9 3.961.696.054 1.376.065 1.821.065.447 0 1.127-.011 1.823-.064 3.54-.265 6.534-1.597 8.898-3.961 1.433-1.431 3.259-3.919 3.817-7.636.07-.461.121-.943.156-1.475.049-.798.051-6.168.051-6.777v-1.367-.879c0-1.551-.002-9.328-.051-10.1-.035-.533-.086-1.015-.156-1.471-.557-3.719-2.383-6.207-3.817-7.642-2.364-2.364-5.36-3.697-8.9-3.961-.549-.041-1.162-.063-1.819-.063" fill="#d1d1d1"/><g fill="#a0a0a0"><path d="m14.01 5.591c.244-.004.492-.006.742-.006.248 0 .496.002.74.006v15.03h-1.482v-15.03" opacity=".5"/><path d="m14.746 24.55c.244 0 .482-.008.669-.02.285-.022.815-.064 1.245-.49.369-.37.434-.809.457-.952.014-.1.025-.216.034-.355.014-.208.021-1.416.021-1.691 0-.276-.007-4.632-.021-4.839-.009-.14-.021-.257-.034-.355-.023-.145-.088-.584-.457-.952-.43-.429-.96-.47-1.245-.489-.187-.016-.425-.022-.667-.022-.244 0-.482.007-.668.022-.287.02-.817.061-1.246.489-.368.368-.434.808-.456.952-.015.099-.026.216-.034.355-.016.207-.021 4.562-.021 4.839 0 .275.006 1.483.021 1.691.008.14.02.256.034.355.022.144.088.582.456.952.429.426.959.468 1.246.49.186.012.422.02.666.02"/></g><g fill="#71c3ea"><path d="m18.557 13.1c0-1.857 1.512-3.371 3.369-3.371 1.857 0 3.371 1.514 3.371 3.371 0 1.859-1.514 3.369-3.371 3.369-1.857 0-3.369-1.509-3.369-3.369m1.497 0c0 1.033.841 1.871 1.872 1.871 1.031 0 1.872-.838 1.872-1.871 0-1.033-.841-1.872-1.872-1.872-1.031 0-1.872.839-1.872 1.872"/><path d="m15.186 13.1c0-3.717 3.02-6.74 6.74-6.74 3.717 0 6.74 3.02 6.74 6.74 0 3.717-3.02 6.74-6.74 6.74-3.715.001-6.74-3.02-6.74-6.74m1.499 0c0 2.891 2.351 5.242 5.241 5.242 2.89 0 5.242-2.352 5.242-5.242 0-2.89-2.352-5.241-5.242-5.241-2.89 0-5.241 2.351-5.241 5.241" opacity=".5"/><path d="m12 13.1c0-5.471 4.451-9.922 9.922-9.922 5.471 0 9.922 4.451 9.922 9.922 0 5.473-4.451 9.923-9.922 9.923-5.471 0-9.922-4.45-9.922-9.923m1.498 0c0 4.646 3.779 8.425 8.424 8.425 4.645 0 8.425-3.778 8.425-8.425 0-4.647-3.78-8.426-8.425-8.426-4.645 0-8.424 3.78-8.424 8.426" opacity=".3"/><path d="m8.822 13.1c0-7.226 5.879-13.1 13.1-13.1 7.227 0 13.11 5.878 13.11 13.1 0 7.226-5.88 13.1-13.11 13.1-7.225.001-13.1-5.877-13.1-13.1m1.495 0c0 6.4 5.208 11.607 11.608 11.607 6.4 0 11.609-5.207 11.609-11.607 0-6.4-5.208-11.606-11.608-11.606-6.4 0-11.609 5.206-11.609 11.606" opacity=".1"/></g></g></g></svg>