<svg viewBox="0 0 28 140" xmlns="http://www.w3.org/2000/svg" xmlns:xlink="http://www.w3.org/1999/xlink"><defs><path id="0" d="m21.15 0v28h-21.15v-28h21.15"/><path id="1" d="m0 28v-28h28v14 14z"/><mask id="2" fill="#fff"><use xlink:href="#0"/></mask><mask id="3" fill="#fff"><use xlink:href="#1"/></mask></defs><g fill="none" fill-rule="evenodd"><g transform="translate(0 55)" fill-rule="nonzero"><g><path d="m23.902 5.084c-5.479-5.446-14.326-5.446-19.805 0-5.446 5.48-5.446 14.327 0 19.806 5.479 5.479 14.327 5.479 19.805 0 5.448-5.479 5.448-14.326 0-19.806" fill="#b0d375"/><path d="m22.19 6.801c-4.522-4.522-11.851-4.522-16.373 0-4.522 4.522-4.522 11.85 0 16.373 4.522 4.522 11.85 4.522 16.373 0 4.523-4.522 4.522-11.851 0-16.373" fill="#d8e59e"/><g transform="translate(2 3)" fill="#fff"><path d="m.414 11.988h11.586l-8.186-8.187c-2.278 2.245-3.4 5.216-3.4 8.187"/><path d="m12 23.574v-11.586l-8.186 8.186c2.244 2.278 5.215 3.4 8.186 3.4"/><path d="m23.586 11.988h-11.586l8.187 8.186c2.277-2.244 3.399-5.215 3.399-8.186"/><path d="m20.19 3.801c-2.245-2.278-5.216-3.4-8.187-3.4v11.586l8.187-8.186"/></g><path d="m18.688 10.3c-2.608-2.608-6.8-2.608-9.408 0-2.608 2.607-2.608 6.8 0 9.408 2.607 2.608 6.799 2.608 9.408 0 2.607-2.607 2.607-6.833 0-9.408" fill="#b0d375"/></g><g transform="translate(0 29)"><path d="m23.801 3.194l-4.214-1.416c-4.61 3.82-13.567 12.809-16.925 17.06l.198 5.04 1.91 1.581 4.379-.132c4.215-3.358 13.237-12.314 17.06-16.958l-2.405-5.169" fill="#727272"/><path fill="#fcba4f" d="M22.418 2.733 4.44 20.712 7.272 23.543 25.02 5.795 23.801 3.194 22.418 2.733"/><path d="m8.918 23.773c-.362-.362-.988-.428-1.646-.197.659-1.317.791-2.47.198-3.062-.593-.592-1.745-.461-3.03.198.197-.659.165-1.252-.231-1.646-.362-.362-.922-.429-1.514-.264l-1.943 5.499.527 1.909 2.502 1.021 5.367-1.91c.197-.626.131-1.185-.231-1.548" fill="#f7d9a9"/><path d="m.851 24l-.79 2.206c-.264 1.054.691 2.01 1.745 1.745l2.206-.79c-.362-.626-.823-1.219-1.383-1.778-.56-.56-1.186-1.021-1.778-1.383" fill="#727272"/><path d="m22.287 0c-.363 0-1.351.658-2.668 1.778l6.586 6.585c1.119-1.35 1.778-2.305 1.778-2.667 0-.56-.329-1.284-.823-2.042-.691-1.054-1.778-2.14-2.832-2.832-.724-.492-1.449-.822-2.041-.822" fill="#e06161"/></g></g><g transform="translate(3 112)"><path d="m14.428 1.452c0-1.163-1.298-1.85-2.264-1.202-4.061 2.726-12.164 7.744-12.164 16.914v.623c0 5.641 4.736 10.213 10.577 10.213 5.841 0 10.577-4.572 10.577-10.213v-7.479c0-1.163-1.299-1.854-2.264-1.203l-4.462 3.01v-10.663" fill="#ff9292" mask="url(#2)"/><path d="m15.527 20.31c0-2.734-2.216-4.951-4.95-4.951-2.734 0-4.95 2.217-4.95 4.951 0 2.733 2.216 4.95 4.95 4.95 2.734 0 4.95-2.217 4.95-4.95" fill="#ffda99"/></g><g><path d="m27.666 8.156c-.156-.156-4.281-.258-7.518-.304-.046-3.238-.148-7.362-.304-7.518-.445-.446-11.241-.446-11.687 0-.157.156-.259 4.28-.305 7.518-3.237.046-7.361.148-7.518.304-.445.446-.445 11.242 0 11.688.157.156 4.282.258 7.518.304.046 3.237.148 7.362.305 7.517.446.446 11.241.446 11.687 0 .156-.156.258-4.28.305-7.517 3.236-.046 7.361-.148 7.517-.304.446-.446.446-11.242 0-11.688" fill="#c6c6c6" mask="url(#3)"/><g fill="#969fa3"><path d="m17.685 5.572c-1.112-1.47-2.398-2.751-3.685-3.843-1.287 1.092-2.573 2.373-3.686 3.843 2.447.155 4.924.155 7.371 0"/><path d="m10.315 22.428c1.112 1.47 2.399 2.751 3.686 3.843 1.286-1.092 2.573-2.373 3.685-3.843-2.448-.155-4.924-.155-7.371 0"/><path d="m22.427 17.685c1.471-1.112 2.751-2.398 3.843-3.685-1.092-1.287-2.372-2.573-3.843-3.685-.155 2.447-.155 4.923 0 7.37"/><path d="m5.572 10.315c-1.47 1.112-2.751 2.398-3.843 3.685 1.092 1.287 2.373 2.573 3.843 3.685.155-2.447.155-4.923 0-7.37"/><path d="m18.13 14c0-2.283-1.851-4.134-4.133-4.134-2.283 0-4.135 1.851-4.135 4.134 0 2.283 1.852 4.134 4.135 4.134 2.282 0 4.133-1.851 4.133-4.134"/></g></g><g transform="translate(0 27)"><path d="m14 8.638l-3.292-6.284c-.437-.833-1.298-1.354-2.238-1.354h-6.519c-1.01 0-1.838.8-1.87 1.808-.236 7.395.044 19.2.84 19.995 1.231 1.23 24.928 1.229 26.16 0 .517-.517.816-6.527.898-11.643l-13.976-2.522" fill="#52a1d1"/><path d="m1.951.275c-1.01 0-1.838.799-1.87 1.808-.236 7.395.044 19.2.84 19.994 1.231 1.231 24.928 1.229 26.16 0 .796-.796 1.077-12.598.841-19.994-.032-1.01-.861-1.808-1.87-1.808h-24.1" transform="translate(0 5.562)" fill="#82cef9"/><g fill="#52a1d1"><path d="m12.274 14.885c-.062-.062-1.69-.102-2.969-.12-.018-1.279-.058-2.908-.121-2.97-.175-.175-3.02-.176-3.198 0-.062.062-.102 1.691-.12 2.97-1.279.018-2.908.058-2.969.12-.176.176-.176 3.02 0 3.198.062.062 1.69.102 2.969.12.018 1.279.058 2.908.12 2.97.176.176 3.02.176 3.198 0 .063-.062.103-1.691.121-2.97 1.279-.018 2.908-.058 2.969-.12.175-.176.176-3.02 0-3.198"/><path d="m18.904 16.484c0 .943-.764 1.708-1.708 1.708-.943 0-1.708-.765-1.708-1.708 0-.943.765-1.708 1.708-1.708.944 0 1.708.765 1.708 1.708"/><path d="m25.49 16.484c0 .943-.765 1.708-1.708 1.708-.944 0-1.709-.765-1.709-1.708 0-.943.765-1.708 1.709-1.708.943 0 1.708.765 1.708 1.708"/><path d="m20.489 14.9c-.944 0-1.708-.765-1.708-1.708 0-.944.764-1.709 1.708-1.709.943 0 1.708.765 1.708 1.709 0 .943-.765 1.708-1.708 1.708"/><path d="m20.489 21.485c-.944 0-1.708-.765-1.708-1.708 0-.943.764-1.708 1.708-1.708.943 0 1.708.765 1.708 1.708 0 .943-.765 1.708-1.708 1.708"/></g></g></g></svg>