<?xml version="1.0" encoding="UTF-8"?>
<!-- Created with Inkscape (http://www.inkscape.org/) -->
<svg width="79.375mm" height="35.719mm" version="1.1" viewBox="0 0 79.375 35.719" xmlns="http://www.w3.org/2000/svg" xmlns:cc="http://creativecommons.org/ns#" xmlns:dc="http://purl.org/dc/elements/1.1/" xmlns:rdf="http://www.w3.org/1999/02/22-rdf-syntax-ns#">
 <metadata>
  <rdf:RDF>
   <cc:Work rdf:about="">
    <dc:format>image/svg+xml</dc:format>
    <dc:type rdf:resource="http://purl.org/dc/dcmitype/StillImage"/>
    <dc:title/>
   </cc:Work>
  </rdf:RDF>
 </metadata>
 <g transform="translate(-132.29 -189.84)">
  <rect transform="scale(-1,1)" x="-198.44" y="225.56" width="52.917" height="8.6934" fill="#9b1d20" stroke-width=".26285"/>
  <rect transform="scale(-1,1)" x="-201.08" y="230.85" width="58.208" height="9.2604" fill="#932322" stroke-width=".24531"/>
  <rect x="156.1" y="11.25" width="31.75" height="214.31" fill="#ccc" stroke="#932322" stroke-linecap="round" stroke-linejoin="round" stroke-width=".864"/>
  <path d="m156.1 11.25 14.552-17.198h2.6458l14.552 17.198z" fill="#20373d"/>
 </g>
 <g transform="translate(-132.29 -189.84)">
  <g>
   <rect x="150.81" y="172.65" width="5.2917" height="17.198" fill="#9b1d20" stroke-width=".24223"/>
   <rect transform="scale(-1)" x="-193.15" y="-189.84" width="5.2917" height="17.198" ry="6.6317e-14" fill="#9b1d20" stroke-width=".28081"/>
   <rect x="162.72" y="177.94" width="18.521" height="11.906" fill="#20373d" stroke-width=".26458"/>
   <rect x="149.49" y="171.32" width="44.979" height="1.3229" fill="#9b1d20" stroke-width=".25713"/>
   <rect x="149.49" y="170" width="44.979" height="1.3229" fill="#560f0d" stroke-width=".25713"/>
   <rect x="149.49" y="154.12" width="44.979" height="1.3229" fill="#284447" stroke-width=".26458"/>
  </g>
  <g fill="#20373d">
   <path d="m194.47 155.45 14.552 14.552h-14.552z"/>
   <rect x="149.49" y="155.45" width="44.979" height="14.552"/>
   <path d="m149.49 155.45-14.552 14.552h14.552z"/>
  </g>
  <g fill="#9b1d20">
   <rect x="148.17" y="173.97" width="47.625" height="1.3229" stroke-width=".26458"/>
   <rect x="150.81" y="136.93" width="5.2917" height="17.198" stroke-width=".24223"/>
   <rect transform="scale(-1)" x="-193.15" y="-154.12" width="5.2917" height="17.198" ry="6.6317e-14" stroke-width=".28081"/>
  </g>
  <g>
   <rect x="162.72" y="142.22" width="18.521" height="11.906" fill="#20373d" stroke-width=".26458"/>
   <rect x="149.49" y="135.6" width="44.979" height="1.3229" fill="#9b1d20" stroke-width=".25713"/>
   <rect x="149.49" y="134.28" width="44.979" height="1.3229" fill="#560f0d" stroke-width=".25713"/>
   <rect x="149.49" y="118.41" width="44.979" height="1.3229" fill="#284447" stroke-width=".26458"/>
  </g>
  <g fill="#20373d">
   <path d="m194.47 119.73 11.906 14.552h-11.906z"/>
   <rect x="149.49" y="119.73" width="44.979" height="14.552"/>
   <path d="m149.49 119.73-11.906 14.552h11.906z"/>
  </g>
  <g fill="#9b1d20">
   <rect x="148.17" y="138.25" width="47.625" height="1.3229" stroke-width=".26458"/>
   <rect x="150.81" y="101.21" width="5.2917" height="17.198" stroke-width=".24223"/>
   <rect transform="scale(-1)" x="-193.15" y="-118.41" width="5.2917" height="17.198" ry="6.6317e-14" stroke-width=".28081"/>
  </g>
  <rect x="149.49" y="99.885" width="44.979" height="1.3229" ry=".66146" fill="none" stroke-width=".26458"/>
  <g>
   <rect x="148.17" y="102.53" width="47.625" height="1.3229" fill="#9b1d20" stroke-width=".26458"/>
   <rect x="149.49" y="99.885" width="44.979" height="1.3229" fill="#9b1d20" stroke-width=".25713"/>
   <rect x="149.49" y="98.563" width="44.979" height="1.3229" fill="#560f0d" stroke-width=".25713"/>
   <rect x="149.49" y="82.688" width="44.979" height="1.3229" fill="#284447" stroke-width=".26458"/>
   <rect x="149.49" y="84.01" width="44.979" height="14.552" fill="#20373d"/>
   <rect x="150.81" y="65.49" width="5.2917" height="17.198" fill="#9b1d20" stroke-width=".24223"/>
   <rect transform="scale(-1)" x="-193.15" y="-82.688" width="5.2917" height="17.198" ry="6.6317e-14" fill="#9b1d20" stroke-width=".28081"/>
   <rect x="162.72" y="70.781" width="18.521" height="11.906" fill="#20373d" stroke-width=".26458"/>
   <rect x="149.49" y="64.167" width="44.979" height="1.3229" fill="#9b1d20" stroke-width=".25713"/>
   <rect x="149.49" y="62.844" width="44.979" height="1.3229" fill="#560f0d" stroke-width=".25713"/>
   <rect x="149.49" y="46.969" width="44.979" height="1.3229" fill="#284447" stroke-width=".26458"/>
   <rect x="149.49" y="48.292" width="44.979" height="14.552" fill="#20373d"/>
  </g>
  <g fill="#9b1d20">
   <rect x="148.17" y="66.812" width="47.625" height="1.3229" stroke-width=".26458"/>
   <rect x="150.81" y="29.771" width="5.2917" height="17.198" stroke-width=".24223"/>
   <rect transform="scale(-1)" x="-193.15" y="-46.969" width="5.2917" height="17.198" ry="6.6317e-14" stroke-width=".28081"/>
  </g>
  <g>
   <rect x="162.72" y="35.062" width="18.521" height="11.906" fill="#20373d" stroke-width=".26458"/>
   <rect x="149.49" y="28.448" width="44.979" height="1.3229" fill="#9b1d20" stroke-width=".25713"/>
   <rect x="149.49" y="27.125" width="44.979" height="1.3229" fill="#560f0d" stroke-width=".25713"/>
   <rect x="149.49" y="11.25" width="44.979" height="1.3229" fill="#284447" stroke-width=".26458"/>
  </g>
  <g fill="#20373d">
   <path d="m194.47 12.573 11.906 14.552h-11.906z"/>
   <rect x="149.49" y="12.573" width="44.979" height="14.552"/>
   <path d="m149.49 12.573-11.906 14.552h11.906z"/>
  </g>
  <rect x="148.17" y="31.094" width="47.625" height="1.3229" fill="#9b1d20" stroke-width=".26458"/>
  <g fill="#20373d">
   <path d="m194.47 84.01 11.906 14.552h-11.906z"/>
   <path d="m149.49 84.01-11.906 14.552h11.906z"/>
   <path d="m194.47 48.292 11.906 14.552h-11.906z"/>
   <path d="m149.49 48.292-11.906 14.552h11.906z"/>
   <rect x="162.72" y="106.5" width="18.521" height="11.906" stroke-width=".26458"/>
  </g>
 </g>
 <g transform="translate(-132.29 -189.84)">
  <g font-family="sans-serif" font-size="10.583px" letter-spacing="0px" stroke-width=".26458" word-spacing="0px">
   <text x="166.79085" y="45.108398" fill="#ffffff" style="line-height:1.25" xml:space="preserve"><tspan x="166.79085" y="45.108398" fill="#ffffff" stroke-width=".26458">一</tspan></text>
   <text x="166.72884" y="80.579102" fill="#000000" style="line-height:1.25" xml:space="preserve"><tspan x="166.72884" y="80.579102" fill="#ffffff" stroke-width=".26458">二</tspan></text>
   <text x="166.6875" y="116.23584" fill="#ffffff" style="line-height:1.25" xml:space="preserve"><tspan x="166.6875" y="116.23584" fill="#ffffff" stroke-width=".26458">三</tspan></text>
   <text x="166.72884" y="151.72722" fill="#000000" style="line-height:1.25" xml:space="preserve"><tspan x="166.72884" y="151.72722" fill="#ffffff" stroke-width=".26458">四</tspan></text>
   <text x="166.70818" y="187.73535" fill="#000000" style="line-height:1.25" xml:space="preserve"><tspan x="166.70818" y="187.73535" fill="#ffffff" stroke-width=".26458">五</tspan></text>
  </g>
  <g transform="translate(100.54 35.719)">
   <rect x="50.271" y="172.65" width="5.2917" height="17.198" fill="#9b1d20" stroke-width=".24223"/>
   <rect transform="scale(-1)" x="-92.604" y="-189.84" width="5.2917" height="17.198" ry="6.6317e-14" fill="#9b1d20" stroke-width=".28081"/>
   <rect x="48.948" y="171.32" width="44.979" height="1.3229" ry=".66146" fill="none" stroke-width=".26458"/>
   <g>
    <rect x="47.625" y="173.97" width="47.625" height="1.3229" fill="#9b1d20" stroke-width=".26458"/>
    <rect x="62.177" y="177.94" width="18.521" height="11.906" fill="#20373d" stroke-width=".26458"/>
    <rect x="48.948" y="171.32" width="44.979" height="1.3229" fill="#9b1d20" stroke-width=".25713"/>
    <rect x="48.948" y="170" width="44.979" height="1.3229" fill="#560f0d" stroke-width=".25713"/>
    <rect x="48.948" y="154.12" width="44.979" height="1.3229" fill="#284447" stroke-width=".26458"/>
   </g>
   <g fill="#20373d">
    <path d="m93.927 155.45 17.198 14.552h-17.198z"/>
    <rect x="48.948" y="155.45" width="44.979" height="14.552"/>
    <path d="m48.948 155.45-17.198 14.552h17.198z"/>
   </g>
   <text x="66.145828" y="187.69402" fill="#000000" font-family="sans-serif" font-size="10.583px" letter-spacing="0px" stroke-width=".26458" word-spacing="0px" style="line-height:1.25" xml:space="preserve"><tspan x="66.145828" y="187.69402" fill="#ffffff" stroke-width=".26458">六</tspan></text>
  </g>
  <g transform="translate(100.54 35.719)">
   <rect x="50.271" y="172.65" width="5.2917" height="17.198" fill="#9b1d20" stroke-width=".24223"/>
   <rect transform="scale(-1)" x="-92.604" y="-189.84" width="5.2917" height="17.198" ry="6.6317e-14" fill="#9b1d20" stroke-width=".28081"/>
   <rect x="48.948" y="171.32" width="44.979" height="1.3229" ry=".66146" fill="none" stroke-width=".26458"/>
   <g>
    <rect x="47.625" y="173.97" width="47.625" height="1.3229" fill="#9b1d20" stroke-width=".26458"/>
    <rect x="62.177" y="177.94" width="18.521" height="11.906" fill="#20373d" stroke-width=".26458"/>
    <rect x="48.948" y="171.32" width="44.979" height="1.3229" fill="#9b1d20" stroke-width=".25713"/>
    <rect x="48.948" y="170" width="44.979" height="1.3229" fill="#560f0d" stroke-width=".25713"/>
    <rect x="48.948" y="154.12" width="44.979" height="1.3229" fill="#284447" stroke-width=".26458"/>
   </g>
   <g fill="#20373d">
    <path d="m93.927 155.45 17.198 14.552h-17.198z"/>
    <rect x="48.948" y="155.45" width="44.979" height="14.552"/>
    <path d="m48.948 155.45-17.198 14.552h17.198z"/>
   </g>
   <text x="66.145828" y="187.69402" fill="#000000" font-family="sans-serif" font-size="10.583px" letter-spacing="0px" stroke-width=".26458" word-spacing="0px" style="line-height:1.25" xml:space="preserve"><tspan x="66.145828" y="187.69402" fill="#ffffff" stroke-width=".26458">六</tspan></text>
  </g>
 </g>
</svg>
